<svg xmlns="http://www.w3.org/2000/svg" width="800" height="800.03802" version="1.0" viewBox="0 0 600.00001 600.02853"><circle cx="300.5795" cy="298.89755" r="291.26886" style="fill:#fff;fill-opacity:1;stroke-width:3.75;stroke-linejoin:round"/><g style="stroke-width:8.33219"><path d="M24420 49994c-58-2-235-8-395-14-4102-153-8102-1320-11650-3398-2307-1351-4398-3080-6169-5098-1892-2155-3386-4593-4441-7244-983-2470-1561-5068-1720-7735-32-546-39-819-39-1505s7-959 39-1505c159-2667 737-5265 1720-7735 422-1061 943-2144 1502-3124 2231-3908 5461-7138 9369-9369 777-443 1690-897 2530-1258 5351-2297 11431-2637 17043-953 2077 623 4130 1551 5971 2697 3553 2213 6482 5255 8553 8883 443 777 897 1690 1258 2530 2054 4784 2549 10170 1408 15304-324 1459-818 2989-1409 4365-361 841-814 1752-1257 2529-2625 4598-6638 8254-11448 10428-1982 896-4090 1532-6246 1882-991 162-1939 258-3029 306-222 10-1387 20-1590 14zm1785-1758c1096-59 1983-155 2980-322 494-82 1074-199 1365-275 2590-673 5111-1791 7325-3247 656-431 1071-737 1719-1265 965-789 1974-1754 2822-2702 613-686 1288-1532 1675-2100 1289-1889 2262-3825 3002-5965 275-796 533-1695 651-2270 275-1337 420-2500 498-4005 18-341 18-1829 0-2170-61-1187-154-2063-328-3100-149-892-286-1475-550-2340-637-2084-1538-4065-2689-5910-586-940-1159-1716-1930-2613-686-799-1487-1618-2285-2337-669-602-1561-1315-2135-1706-1433-978-2856-1754-4428-2416-1243-523-2805-1031-3807-1237-1339-276-2498-420-4005-498-341-18-1829-18-2170 0-897 46-1521 102-2275 203-762 102-1705 274-2190 400-2417 628-4753 1634-6885 2964-940 586-1716 1159-2613 1930-799 686-1618 1487-2337 2285-602 669-1315 1561-1706 2135-1289 1889-2262 3825-3002 5965-275 796-533 1695-651 2270-275 1337-417 2476-498 4005-20 382-17 1863 5 2275 59 1086 152 1962 313 2934 89 537 204 1116 285 1426 505 1946 1271 3876 2242 5650 509 929 1122 1899 1633 2580 719 959 1432 1779 2319 2666 642 642 1204 1152 1851 1681 648 528 1063 834 1719 1265 2211 1454 4753 2581 7325 3247 488 127 1429 299 2190 400 873 117 1541 172 2615 215 241 10 1683-4 1950-18z" style="fill:#9d694f;fill-opacity:1;stroke-width:8.33219" transform="matrix(.012 0 0 -.012 -.072 600.032)"/><path d="M9832 38369c-3-11-60-348-127-751l-122-731 379-489c456-587 437-562 431-569-3-2-274 149-602 337l-597 342-1025-174c-563-95-1023-177-1022-181 2-4 491-366 1088-804l1085-795 146-1197c80-658 149-1196 153-1196 4 1 406 329 892 728 696 571 891 726 912 726 15-1 495-61 1067-134s1042-132 1044-130-213 461-479 1021-485 1027-487 1038c-3 11 146 402 336 884 188 475 339 866 337 869-3 2-465-68-1028-157s-1030-162-1039-164c-11-1-238 258-654 748-350 413-647 761-660 774-21 22-23 22-28 5z" style="fill:#9d694f;fill-opacity:1;stroke-width:8.33219" transform="matrix(.012 0 0 -.012 -.072 600.032)"/><path d="M22385 35569c-385-37-710-68-722-68-18-1-71-98-363-676l-341-676 129-137c72-75 339-355 594-621l463-485 406-90 406-89 692 179c559 144 691 182 688 194-2 8-273 583-602 1278-571 1204-600 1262-624 1261-14-1-341-32-726-70z" style="fill:#342417;fill-opacity:1;stroke-width:8.33219" transform="matrix(.012 0 0 -.012 -.072 600.032)"/><path d="M13145 33071c-316-323-413-428-424-460-8-22-13-42-10-44 2-2 344-224 759-493 524-340 910-598 1263-847 657.716-510.768 1635.254-930.402 2118-1129 1234.091-593.289 2804.241-632.41 3939-699 600-35 878-54 886-62 6-7 377-626 824-1377 352.021-602.428 747.765-1184.299 1028-1792l-91-87c-1371.261-1051.928-2898.488-2353.578-3936-4104-887.955-1450.641-1335.624-3107.781-1671-4762-139-683-169-812-470-2024-176-712-317-1297-313-1301s40-32 78-62c91.187-77.87 76.137-53.576 195-26 326.414 61.991 536.637 271.863 745 513 206 240 257 306 355 460 73 114 189 275 320 440 129.426 161.825 328.271 358.231 237 575-52 125-216 395-284 467l-54 58 57 115c954.801 2129.13 2336.853 4302.427 4508 5587 623.033 320.057 1289.423 851.167 1967 963l1349-839c2143.368-1561.73 4600.882-1665.566 7160-1652 1141 7 2120 14 2175 17l100 6 63 89 63 89-95 222c-109.087 363.365-534.881 430.808-852 581-455.832 238.968-1117.189 616.821-1374 62-61-132-115-244-119-248-2061.73 435.738-4247.978 1420.179-5236 3067-529 904-559 958-688 1238-131 283-141 311-297 788l-162 495-308 1245-308 1245-6 412-7 412 23 6c467.435 96.608 823.521 170.03 1323 273 1487.38 367.274 2705.663 74.372 4124-344l582-592c320-326 586-592 590-592 11 0 739 700 739 711 0 4-479 372-1065 817-1960.523 1772.848-4459.113 2086.258-7000 2172l-4033-669c-2740.592-640.481-4614.884-906.405-7018 47-6 4-298 320-649 702-350 382-649 707-664 722l-26 28z" style="fill:#342417;fill-opacity:1;stroke-width:8.33219" transform="matrix(.012 0 0 -.012 -.072 600.032)"/><path d="M35580 17335v-525h1135l-2 522-3 523-565 3-565 2zM33830 15120v-2730h526l306 318 307 317 1 2413v2412h-1140zM21317 17783c-4-3-7-1078-7-2388v-2381l323-342 322-342h535l2 1228 3 1227 1063 3 1062 2v-2460h1170v5460h-1170v-2310h-2130v2310h-583c-321 0-587-3-590-7zM39195 16429c-116-10-296-59-388-105-152-77-273-187-385-351-38-56-72-100-76-96-3 3-6 114-6 245v238h-1010v-3970h477l264 287 264 288 6 1015c3 558 8 1029 11 1045 8 39 12 58 33 130 58 202 182 381 337 487 70 47 125 71 214 94 79 20 144 15 227-16 98-37 146-93 191-223l21-62 3-1522 3-1523h1029v2778l25 67c51 133 106 220 207 323 86 87 166 136 272 166 107 31 148 32 237 6 121-36 199-130 239-286 19-75 20-115 20-1566v-1488h1030l-3 1518c-2 834-6 1528-9 1542-52 229-85 322-163 456-112 194-238 320-417 417-112 60-255 88-489 94-160 4-185 3-301-21-130-27-287-83-386-138-133-74-265-193-353-318-59-83-89-109-89-77 0 7-16 45-35 85-97 202-304 377-525 443-85 25-95 27-205 39-94 10-148 10-270-1zM31930 16424c-193-36-358-96-462-166-130-89-257-213-345-335-25-35-49-63-54-63s-9 108-9 255v255h-990v-3498l247-241 247-241h495l3 1338 3 1337 24 85c118 432 476 678 811 558 124-44 233-182 266-336 11-56 14-307 14-1524v-1458h990v1493c0 1618 1 1579-55 1772s-140 340-267 468c-133 134-271 216-450 268-93 28-120 31-273 34-93 2-181 1-195-1zM27545 16395c-198-35-289-63-459-141-347-161-570-404-701-764-25-70-95-314-95-332 0-7 1010-13 1010-5 2 34 45 200 65 252 86 217 217 328 430 361 224 36 390-38 500-221 68-114 92-235 96-490l2-120-59-18c-32-11-68-23-79-28-17-7-246-54-315-64-14-2-38-6-55-9-16-4-127-18-245-31-118-14-230-27-248-30-73-11-284-56-300-64-9-5-46-19-81-31-146-50-311-158-420-275-144-155-231-339-283-598-29-148-32-428-5-556 95-446 334-724 731-849 184-57 447-87 561-64 28 6 82 16 120 22 39 6 84 15 100 20 17 5 64 19 105 30 75 22 94 29 222 89 69 33 215 127 280 181 20 17 39 27 41 23 3-4 12-46 22-93 9-47 23-111 32-142l16-58h499c472 0 500 1 493 18-16 39-58 190-80 292-65 288-77 504-95 1745-5 402-13 762-16 800-29 369-190 671-466 879-84 63-254 154-348 186-36 12-72 26-82 30-16 9-208 49-329 69-118 19-416 12-564-14zm846-2630c-1-464-2-501-18-513-26-20-231-117-278-132-22-7-45-17-52-22-20-16-185-58-254-64-87-9-201 16-263 57-102 68-189 196-215 317-42 197 25 445 156 575 92 92 219 143 424 171 139 19 279 50 404 89 44 13 84 24 89 23s8-217 7-501zM35580 14375v-1985h498l115 123c63 67 205 221 316 341l201 219v3287h-1130z" style="fill:#9d694f;fill-opacity:1;stroke-width:8.33219" transform="matrix(.012 0 0 -.012 -.072 600.032)"/></g></svg>